<?xml version="1.0" encoding="UTF-8" standalone="no"?>
<!-- Generator: Adobe Illustrator 14.0.0, SVG Export Plug-In . SVG Version: 6.00 Build 43363)  -->
<svg xmlns:dc="http://purl.org/dc/elements/1.1/" xmlns:cc="http://creativecommons.org/ns#" xmlns:rdf="http://www.w3.org/1999/02/22-rdf-syntax-ns#" xmlns:svg="http://www.w3.org/2000/svg" xmlns="http://www.w3.org/2000/svg" xmlns:sodipodi="http://sodipodi.sourceforge.net/DTD/sodipodi-0.dtd" xmlns:inkscape="http://www.inkscape.org/namespaces/inkscape" version="1.1" id="Layer_1" x="0px" y="0px" width="240" height="44.955002" viewBox="0 0 240 44.955002" xml:space="preserve" inkscape:version="0.47 r22583" sodipodi:docname="Motorola.svg"><metadata id="metadata29"><rdf:RDF><cc:Work rdf:about=""><dc:format>image/svg+xml</dc:format><dc:type rdf:resource="http://purl.org/dc/dcmitype/StillImage"/></cc:Work></rdf:RDF></metadata><defs id="defs27"><inkscape:perspective sodipodi:type="inkscape:persp3d" inkscape:vp_x="0 : 27 : 1" inkscape:vp_y="0 : 1000 : 0" inkscape:vp_z="250 : 27 : 1" inkscape:persp3d-origin="125 : 18 : 1" id="perspective31"/></defs><sodipodi:namedview pagecolor="#ffffff" bordercolor="#666666" borderopacity="1" objecttolerance="10" gridtolerance="10" guidetolerance="10" inkscape:pageopacity="0" inkscape:pageshadow="2" inkscape:window-width="640" inkscape:window-height="481" id="namedview25" showgrid="false" inkscape:zoom="2.16" inkscape:cx="120" inkscape:cy="22.477" inkscape:window-x="0" inkscape:window-y="0" inkscape:window-maximized="0" inkscape:current-layer="Layer_1"/>
<g id="g3" transform="translate(-5, -4.522)">
	<path style="fill: rgb(255, 255, 255);" d="m 46.949,27.346 c 0,10.742 -8.71,19.453 -19.454,19.453 -10.744,0 -19.453,-8.711 -19.453,-19.453 0,-10.746 8.709,-19.454 19.453,-19.454 10.744,0 19.454,8.708 19.454,19.454" id="path5"/>
	<path style="fill: rgb(0, 93, 170);" d="m 27.474,4.522 c 12.579,0 22.481,10.134 22.481,22.477 0,12.416 -10.067,22.478 -22.481,22.478 C 15.062,49.478 5,39.415 5,27 5,14.583 15.062,4.522 27.474,4.522 m -0.05,27.191 -6.287,-20.862 -8.141,26.71 h 1.527 c 0,0 1.027,-4.646 2.697,-7.421 0.909,-1.507 2.31,-2.739 4.183,-2.705 1.319,0.026 2.462,0.747 3.889,2.743 0.858,1.195 2.179,4.244 2.179,4.244 0,0 1.322,-3.045 2.183,-4.244 1.423,-1.996 2.566,-2.717 3.889,-2.743 1.871,-0.034 3.275,1.198 4.18,2.708 1.671,2.771 2.697,7.418 2.697,7.418 h 1.531 l -8.146,-26.71 -6.286,20.862 -0.045,0.037 -0.05,-0.037 z" id="path7"/>
	<polygon style="fill: rgb(0, 93, 170);" points="78.86,25.975 84.361,19.548 92.405,19.548 88.222,34.535 82.138,34.556 84.361,26.825 77.304,34.556 74.314,34.556 72.139,26.285 69.688,34.556 64.969,34.55 69.368,19.576 76.948,19.576" id="polygon9"/>
	<polygon style="fill: rgb(0, 93, 170);" points="129.649,24.412 127.014,34.55 121.104,34.556 123.562,24.453 117.247,24.453 118.507,19.544 137.186,19.576 136.06,24.412" id="polygon11"/>
	<path style="fill: rgb(0, 93, 170);" d="m 168.593,19.574 v 3.477 h 0.009 l -0.729,2.9 h 6.404 c 0,0 1.555,-0.269 1.641,-1.692 0.074,-1.252 -1.091,-1.167 -1.091,-1.167 l -6.234,-0.022 v -3.494 l 9.646,-0.002 c 0,0 4.13,0.311 3.725,3.884 -0.414,3.567 -4.211,4.707 -4.211,4.707 0,0 -0.227,0.227 -0.048,0.364 0.181,0.13 1.595,0.395 1.771,1.734 0.181,1.336 -0.462,2.309 -0.462,2.716 0,0.399 0.041,1.2 0.547,1.556 h -6.093 c 0,0 -1.089,-0.167 -0.993,-1.291 0.091,-1.108 0.14,-2.086 0.14,-2.086 0,0 -0.091,-1.162 -1.726,-1.025 l -4.453,-0.046 -1.272,4.463 h -5.587 l 4.253,-14.976 h 4.763 z" id="path13"/>
	<polygon style="fill: rgb(0, 93, 170);" points="223.281,30.433 222.188,34.563 207.011,34.563 210.919,19.574 216.64,19.574 213.87,30.433" id="polygon15"/>
	<polygon style="fill: rgb(0, 93, 170);" points="238.416,31.957 238.399,31.906 231.188,31.906 231.163,31.932 229.42,34.55 224.385,34.556 234.558,19.561 236.532,23.982 233.579,28.347 233.665,28.382 237.49,28.382 237.559,28.376 236.532,23.982 234.558,19.561 241.567,19.561 245,34.556 239.05,34.556" id="polygon17"/>
	<path style="fill: rgb(0, 93, 170);" d="m 105.736,22.892 c 1.814,0 3.602,0.896 3.883,2.201 0.864,4.169 -3.579,5.955 -3.061,5.69 -2.557,1.27 -6.441,0.863 -6.899,-1.764 -0.431,-2.528 1.52,-5.016 3.158,-5.61 1.125,-0.402 2.055,-0.576 2.919,-0.517 l 0.013,-0.038 0.023,-3.888 c -1.177,0.022 -2.499,0.169 -3.546,0.374 -4.479,0.858 -10.131,4.932 -9.132,10.087 0.836,4.354 6.747,6.695 13.373,5.415 6.209,-1.191 10.278,-5.979 9.403,-10.224 -0.844,-4.104 -5.704,-5.651 -10.099,-5.651 v 3.36 l -0.035,0.565 z" id="path19"/>
	<path style="fill: rgb(0, 93, 170);" d="m 149.171,22.892 c 1.813,0 3.608,0.896 3.872,2.201 0.875,4.169 -3.568,5.955 -3.044,5.69 -2.56,1.27 -6.45,0.863 -6.903,-1.764 -0.438,-2.528 1.512,-5.016 3.157,-5.61 1.123,-0.402 2.06,-0.576 2.918,-0.517 l 0.015,-0.038 0.022,-3.888 c -1.171,0.022 -2.499,0.169 -3.548,0.374 -4.479,0.858 -10.135,4.932 -9.139,10.087 0.839,4.354 6.76,6.695 13.375,5.415 6.216,-1.191 10.288,-5.979 9.411,-10.224 -0.842,-4.104 -5.702,-5.651 -10.1,-5.651 v 3.36 l -0.036,0.565 z" id="path21"/>
	<path style="fill: rgb(0, 93, 170);" d="m 196.39,22.854 c 1.813,0.099 3.593,0.934 3.865,2.239 0.867,4.169 -3.583,5.955 -3.046,5.69 -2.563,1.27 -6.448,0.863 -6.905,-1.764 -0.438,-2.528 1.512,-5.016 3.157,-5.61 1.351,-0.488 1.876,-0.624 2.929,-0.555 l 0.025,-3.888 c -1.172,0.022 -2.49,0.169 -3.551,0.374 -4.471,0.858 -10.122,4.932 -9.134,10.087 0.839,4.354 6.758,6.695 13.375,5.415 6.213,-1.191 10.285,-5.979 9.404,-10.224 -0.838,-4.104 -5.7,-5.651 -10.095,-5.651 v 3.36 l -0.024,0.527 z" id="path23"/>
</g>
</svg>